<svg width="94" height="34" viewBox="0 0 94 34" fill="none" xmlns="http://www.w3.org/2000/svg">
<path d="M89 17C89 18.9836 87.9991 20.9746 85.973 22.8906C83.9449 24.8087 80.9564 26.582 77.1806 28.0923C69.6347 31.1107 59.1414 33 47.5 33C35.8586 33 25.3653 31.1107 17.8194 28.0923C14.0436 26.582 11.0551 24.8087 9.02697 22.8906C7.00092 20.9746 6 18.9836 6 17C6 15.0164 7.00092 13.0254 9.02697 11.1094C11.0551 9.19135 14.0436 7.41797 17.8194 5.90766C25.3653 2.88927 35.8586 1 47.5 1C59.1414 1 69.6347 2.88927 77.1806 5.90766C80.9564 7.41797 83.9449 9.19135 85.973 11.1094C87.9991 13.0254 89 15.0164 89 17Z" fill="white" stroke="#13AFD6" stroke-width="2"/>
<rect x="1" y="10" width="92" height="14" fill="white" stroke="#12CCC0" stroke-width="2"/>
<path d="M19.0322 13.127H15.833V22H14.5273V13.127H11.335V12.0469H19.0322V13.127ZM24.1592 17.9736H21.8213V22H20.502V12.0469H23.7969C24.918 12.0469 25.7793 12.3021 26.3809 12.8125C26.987 13.3229 27.29 14.0658 27.29 15.041C27.29 15.6608 27.1214 16.2008 26.7842 16.6611C26.4515 17.1214 25.9867 17.4655 25.3896 17.6934L27.7275 21.918V22H26.3193L24.1592 17.9736ZM21.8213 16.9004H23.8379C24.4896 16.9004 25.0068 16.7318 25.3896 16.3945C25.777 16.0573 25.9707 15.6061 25.9707 15.041C25.9707 14.4258 25.7861 13.9541 25.417 13.626C25.0524 13.2979 24.5238 13.1315 23.8311 13.127H21.8213V16.9004ZM34.6318 19.4023H30.4619L29.5254 22H28.1719L31.9727 12.0469H33.1211L36.9287 22H35.582L34.6318 19.4023ZM30.8584 18.3223H34.2422L32.5469 13.667L30.8584 18.3223ZM40.9619 20.2568L43.8057 12.0469H45.2412L41.5498 22H40.3877L36.7031 12.0469H38.1318L40.9619 20.2568ZM52.207 17.3994H47.8936V20.9268H52.9043V22H46.5811V12.0469H52.8359V13.127H47.8936V16.3262H52.207V17.3994ZM55.8574 20.9268H60.5742V22H54.5381V12.0469H55.8574V20.9268ZM63.3906 20.9268H68.1074V22H62.0713V12.0469H63.3906V20.9268ZM75.2305 17.3994H70.917V20.9268H75.9277V22H69.6045V12.0469H75.8594V13.127H70.917V16.3262H75.2305V17.3994ZM81.2119 17.9736H78.874V22H77.5547V12.0469H80.8496C81.9707 12.0469 82.832 12.3021 83.4336 12.8125C84.0397 13.3229 84.3428 14.0658 84.3428 15.041C84.3428 15.6608 84.1742 16.2008 83.8369 16.6611C83.5042 17.1214 83.0394 17.4655 82.4424 17.6934L84.7803 21.918V22H83.3721L81.2119 17.9736ZM78.874 16.9004H80.8906C81.5423 16.9004 82.0596 16.7318 82.4424 16.3945C82.8298 16.0573 83.0234 15.6061 83.0234 15.041C83.0234 14.4258 82.8389 13.9541 82.4697 13.626C82.1051 13.2979 81.5765 13.1315 80.8838 13.127H78.874V16.9004Z" fill="#1348D6"/>
</svg>
